<?xml version="1.0" standalone="no"?>
<!DOCTYPE svg PUBLIC "-//W3C//DTD SVG 20010904//EN"
 "http://www.w3.org/TR/2001/REC-SVG-20010904/DTD/svg10.dtd">
<svg version="1.0" xmlns="http://www.w3.org/2000/svg"
 width="365.000000pt" height="365.000000pt" viewBox="0 0 365.000000 365.000000"
 preserveAspectRatio="xMidYMid meet">
<metadata>
Created by potrace 1.11, written by Peter Selinger 2001-2013
</metadata>
<g transform="translate(0.000000,365.000000) scale(0.100000,-0.100000)"
fill="#000000" stroke="none">
<path d="M1697 3574 c-1 -1 -47 -4 -102 -8 -55 -3 -113 -9 -130 -12 -16 -3
-43 -7 -60 -9 -82 -11 -118 -18 -215 -41 -265 -62 -478 -152 -685 -289 l-110
-72 1 -759 c0 -418 4 -784 8 -814 25 -182 88 -343 219 -555 6 -11 47 -65 89
-121 229 -297 594 -592 1020 -824 l78 -42 102 55 c112 59 211 117 267 154 20
13 43 28 51 33 213 136 524 404 661 570 161 195 249 358 312 580 20 73 21 94
24 900 l3 825 -76 50 c-130 85 -146 95 -240 141 -315 153 -679 234 -1077 238
-76 1 -139 1 -140 0z m308 -738 c116 -11 143 -16 302 -51 12 -3 59 -18 105
-33 l83 -27 3 -557 2 -557 -25 -67 c-69 -183 -301 -429 -589 -623 l-73 -50
-124 93 c-222 167 -396 348 -486 505 -79 137 -77 119 -77 719 l-1 532 50 19
c127 48 313 87 460 98 44 3 81 6 82 7 5 4 232 -2 288 -8z"/>
</g>
</svg>
